<svg version="1.1" id="kuma-frame"  xmlns="http://www.w3.org/2000/svg" viewBox="0 0 1080 1078.8"  xml:space="preserve">
<path id="path43_00000052795156413320458980000000421299550861333404_" class="kuma-external" d="M539.8,751.9"/>
<path id="path43_00000085952432926148550160000007597975290071053474_" class="kuma-external" d="M539.8,635.9"/>
<g>
	<path class="kuma-external" d="M864,353c-5-9.6-10.2-19-15.4-28.1c62.8-7.8,111.5-60,111.5-123c0-68.4-57.3-124-127.8-124
		c-56.9,0-105.9,36-122.1,87.7c-52-36.3-109.2-54.7-170.4-54.8c-0.2,0-0.4,0-0.6,0c-69.9,0-133,17.9-188,53.3
		c-16.5-51-65.2-86.5-121.7-86.5c-70.5,0-127.8,55.6-127.8,124c0,62,47.2,113.5,108.5,122.6c-5,9.2-9.8,18.7-14.4,28.5
		c-55.9,118.2-67.6,234.4-68,239.3l-1.2,12.6l12.6,1.1c1.3,0.1,134.3,12.6,221.9,125.3C432,822.3,527.1,990,528,991.7l10.8,19.1
		l10.9-19c0.9-1.6,92.2-159.4,174.6-266.3c46.8-60.6,102.2-89.8,140.5-103.5c41.7-15,72.8-15.5,73-15.5l15.1-0.1l-2.9-14.8
		C949,586.6,925.5,470.8,864,353z M832.2,102.9c56.7,0,102.8,44.4,102.8,99c0,52.7-42.9,95.9-96.9,98.8
		c-30.2-49.8-65.6-91.1-105.6-122.7C743.8,134.1,784.5,102.9,832.2,102.9z M126.6,201.6c0-54.6,46.1-99,102.8-99
		c47.7,0,88.4,31.2,99.6,75.1c-39.9,31.6-75.4,72.9-105.6,122.7C169.5,297.5,126.6,254.3,126.6,201.6z M857.4,598
		c-41.7,14.8-102.1,46.3-152.9,112.1C638,796.5,565.9,915.2,539,960.6c-27.2-46.8-100.4-170.6-158.3-245
		C331.4,652.2,269,619,225.4,602.2c-30.9-11.9-56.8-17.3-71.4-19.7c4.5-32.5,20.4-126.2,64.3-219.1c9.8-20.8,20.3-40.1,31.5-58.1
		c12.8-20.4,26.6-39.1,41.2-56.2c65.4-75.3,148.4-113.4,248.1-113.4c0.2,0,0.4,0,0.6,0c121.1,0.2,222.7,77,301.9,228.3
		c47.9,91.6,72.6,184.2,80.8,218.4C908.1,584.2,885,588.2,857.4,598z"/>
	<polygon class="kuma-diamond-left" points="711.6,364.5 695.2,345.5 586.4,439.6 694.9,540.8 711.9,522.6 623.8,440.4 	"/>
	<circle class="kuma-dot" cx="538.9" cy="443.7" r="20.2"/>
	<polygon class="kuma-diamond-right" points="365.5,365.6 453.3,441.5 365.2,523.7 382.2,541.9 490.7,440.7 381.9,346.6 	"/>
</g>
</svg>
